<svg width="61" height="61" viewBox="0 0 61 61" fill="none" xmlns="http://www.w3.org/2000/svg">
<path d="M17.4175 29.5999L10.679 20.6015L1.97543e-06 23.47L6.3403 14.4956L0.0632862 5.17618L10.7203 8.62826L17.5197 -6.34077e-07L17.7659 11.1078L28.2453 15.0948L17.7404 18.5078L17.4175 29.5999Z" transform="translate(0 31)" fill="#F7F2F7"/>
<path d="M8.34551 37.9617C9.71815 36.1 17.8969 25.0259 17.8969 25.0259C17.8969 25.0259 17.8789 38.7307 17.8758 41.0316C20.0986 41.7461 33.2997 46.0001 33.2997 46.0001C33.2997 46.0001 20.0874 50.2151 17.8627 50.9227C17.8612 52.0416 17.8562 55.8541 17.8513 59.4724L59.9559 46.0354L26.1069 35.1323L26.1534 -9.90743e-09L1.70866e-08 35.2764C3.52032 36.4111 7.25867 37.6095 8.34551 37.9617Z" transform="translate(1)" fill="#9E29A8"/>
</svg>
