<?xml version="1.0" standalone="no"?>
<!DOCTYPE svg PUBLIC "-//W3C//DTD SVG 20010904//EN"
 "http://www.w3.org/TR/2001/REC-SVG-20010904/DTD/svg10.dtd">
<svg version="1.0" xmlns="http://www.w3.org/2000/svg"
 width="700.000000pt" height="700.000000pt" viewBox="0 0 700.000000 700.000000"
 preserveAspectRatio="xMidYMid meet">
<metadata>
Created by potrace 1.11, written by Peter Selinger 2001-2013
</metadata>
<g transform="translate(0.000000,700.000000) scale(0.100000,-0.100000)"
fill="#000000" stroke="none">
<path d="M3080 6953 c-14 -21 -30 -45 -37 -53 -7 -8 -77 -103 -157 -210 -79
-107 -164 -222 -189 -255 -95 -127 -430 -580 -582 -785 -87 -118 -216 -291
-285 -385 -174 -233 -429 -577 -574 -774 -67 -89 -205 -276 -308 -415 -102
-138 -200 -269 -216 -291 -16 -22 -95 -128 -174 -235 -377 -509 -438 -593
-432 -601 3 -5 11 -9 17 -9 7 0 66 -18 132 -39 66 -22 242 -78 390 -126 149
-47 301 -96 338 -109 l68 -24 32 43 c18 24 40 54 49 66 9 13 52 71 95 129 64
86 322 435 576 780 26 36 53 72 60 80 7 8 48 65 92 125 43 61 82 112 85 115 3
3 27 35 53 73 27 37 50 67 53 67 2 0 3 -411 2 -914 l-3 -914 285 -92 c157 -50
411 -132 565 -182 154 -49 305 -98 335 -108 199 -66 559 -180 571 -180 31 -1
-25 -22 -257 -95 -132 -42 -457 -146 -724 -232 -267 -85 -525 -168 -575 -183
-49 -15 -115 -36 -145 -47 l-55 -18 -1 -487 c0 -269 2 -488 6 -488 3 0 71 21
151 46 79 25 171 54 204 64 33 10 96 30 140 45 86 28 165 54 735 235 124 40
324 103 445 142 121 38 231 73 245 78 14 5 113 36 220 70 107 34 222 71 255
82 33 10 152 48 265 84 113 36 311 99 440 140 438 141 705 226 825 264 319
102 583 186 710 227 77 24 151 48 165 52 20 7 -15 21 -185 75 -115 37 -235 76
-265 86 -30 10 -183 59 -340 110 -157 50 -296 95 -310 100 -14 5 -126 41 -250
80 -124 39 -256 82 -295 95 -38 13 -185 60 -325 105 -140 44 -273 87 -295 95
-22 7 -159 52 -305 98 -146 47 -400 129 -565 182 -165 53 -356 115 -425 137
-69 22 -163 53 -210 68 l-85 27 1 2012 c0 1106 -2 2011 -5 2011 -4 0 -17 -17
-31 -37z"/>
<path d="M1960 3378 c-25 -33 -52 -67 -60 -76 -9 -9 -55 -67 -102 -129 -48
-61 -94 -120 -102 -130 -8 -10 -117 -147 -241 -305 l-226 -287 -117 39 c-64
22 -144 48 -177 59 -246 79 -710 230 -805 261 -63 21 -116 37 -117 36 -2 -1
91 -142 206 -312 114 -170 276 -410 359 -533 l150 -224 -55 -76 c-30 -42 -126
-177 -213 -301 -87 -124 -167 -236 -177 -250 -142 -195 -278 -398 -265 -395
10 2 136 36 282 75 212 57 736 197 896 239 l30 8 384 -513 c211 -282 385 -512
387 -511 1 2 5 97 8 212 3 116 8 266 10 335 4 103 13 432 19 664 1 49 1 50 46
67 25 10 122 42 215 72 94 30 330 107 525 170 195 64 367 119 383 123 36 8 34
18 -5 32 -18 5 -116 42 -218 82 -102 39 -207 79 -235 89 -223 83 -692 264
-698 270 -8 8 -12 120 -22 591 -8 420 -15 673 -18 676 -1 1 -22 -25 -47 -58z"/>
</g>
</svg>
